<?xml version="1.0" encoding="utf-8"?>
<!-- Generator: Adobe Illustrator 21.1.0, SVG Export Plug-In . SVG Version: 6.00 Build 0)  -->
<svg version="1.1" id="Layer_1" xmlns="http://www.w3.org/2000/svg" xmlns:xlink="http://www.w3.org/1999/xlink" x="0px" y="0px"
	 viewBox="0 0 60 60" style="enable-background:new 0 0 60 60;" xml:space="preserve">
<g>
	<path d="M37.5,43c-5,0-10.1-2.3-14.1-6.3l-0.1-0.1l0,0c-4.2-4.2-6.4-9.4-6.3-14.5l0-0.4l0.2-0.3c0.4-0.5,0.7-0.9,1.1-1.2
		c1.4-1.4,3-2.4,4.7-3.1c0.2-0.1,0.5-0.1,0.7-0.1c0.6,0,2,0.3,2.3,1.3c0.6,1.7,1.4,3.9,1.9,6c0.2,0.6,0,2-0.8,2.6l-2,1.3
		c0,0,0,0.3,0.3,0.7c0.8,1.1,1.7,2.1,2.6,3.1c1,1,2,1.9,3.1,2.6c0.2,0.1,0.4,0.2,0.6,0.2l0.7-1l0.6-1c0.5-0.9,1.9-0.9,2.1-0.9
		c0.2,0,0.3,0,0.4,0c2.6,0.6,4.2,1.1,6.1,2c0.9,0.4,1.4,2,1,3c-0.7,1.8-1.7,3.4-3.1,4.7c-0.4,0.4-0.8,0.7-1.2,1.1L38.3,43L37.5,43
		L37.5,43z M19.2,22.5c0,4.3,2.1,9,5.6,12.5l0.1,0.1c3.5,3.5,8.1,5.6,12.5,5.6c0.3-0.2,0.5-0.4,0.7-0.7c1.1-1.1,2-2.5,2.6-4
		c0,0-0.1-0.1-0.1-0.3c-1.7-0.8-3.2-1.2-5.5-1.7c-0.1,0-0.2,0-0.3,0.1L33.8,36c-0.7,1.1-2.6,1.3-3.9,0.3c-1.1-0.8-2.3-1.8-3.3-2.8
		c-1.1-1.1-2-2.2-2.9-3.4c-0.5-0.8-0.8-1.6-0.6-2.4c0.1-0.6,0.5-1.1,1-1.4l1.8-1.1c0-0.1,0-0.2,0-0.3c-0.5-1.8-1.2-3.9-1.8-5.5
		c-0.1,0-0.2-0.1-0.3-0.1c-1.4,0.6-2.8,1.4-3.9,2.6C19.7,22,19.5,22.3,19.2,22.5L19.2,22.5z"/>
</g>
</svg>
