<?xml version="1.0" encoding="utf-8"?>
<!-- Generator: Adobe Illustrator 21.1.0, SVG Export Plug-In . SVG Version: 6.00 Build 0)  -->
<svg version="1.1" id="Layer_1" xmlns="http://www.w3.org/2000/svg" xmlns:xlink="http://www.w3.org/1999/xlink" x="0px" y="0px"
	 viewBox="0 0 60 60" style="enable-background:new 0 0 60 60;" xml:space="preserve">
<g>
	<path d="M32.8,28.5c2.2-1,3.8-3.3,3.8-5.9c0-3.6-2.9-6.6-6.6-6.6s-6.6,2.9-6.6,6.6c0,2.6,1.6,4.9,3.8,5.9c-2.6,1.1-4.4,3.6-4.4,6.6
		v9h2v-9c0-2.8,2.3-5.1,5.1-5.1s5.1,2.3,5.1,5.1v9h2v-9C37.1,32.1,35.3,29.6,32.8,28.5z M25.4,22.6c0-2.5,2-4.6,4.6-4.6
		s4.6,2,4.6,4.6s-2,4.6-4.6,4.6S25.4,25.1,25.4,22.6z"/>
	<path d="M45.7,32.6c1.5-0.9,2.5-2.5,2.5-4.3c0-2.8-2.3-5.1-5.1-5.1S38,25.5,38,28.3c0,1.8,1,3.4,2.5,4.3c-1.7,0.9-2.9,2.7-2.9,4.8
		V44h2v-6.6c0-1.9,1.6-3.5,3.5-3.5c1.9,0,3.5,1.6,3.5,3.5V44h2v-6.6C48.5,35.4,47.4,33.5,45.7,32.6z M43.1,31.4
		c-1.7,0-3.1-1.4-3.1-3.1c0-1.7,1.4-3.1,3.1-3.1s3.1,1.4,3.1,3.1C46.1,30,44.7,31.4,43.1,31.4z"/>
	<path d="M19.5,32.6c1.5-0.9,2.5-2.5,2.5-4.3c0-2.8-2.3-5.1-5.1-5.1s-5.1,2.3-5.1,5.1c0,1.8,1,3.4,2.5,4.3c-1.7,0.9-2.9,2.7-2.9,4.8
		V44h2v-6.6c0-1.9,1.6-3.5,3.5-3.5s3.5,1.6,3.5,3.5V44h2v-6.6C22.4,35.4,21.3,33.5,19.5,32.6z M16.9,31.4c-1.7,0-3.1-1.4-3.1-3.1
		c0-1.7,1.4-3.1,3.1-3.1s3.1,1.4,3.1,3.1C20,30,18.6,31.4,16.9,31.4z"/>
</g>
</svg>
