<?xml version="1.0" encoding="utf-8"?>
<!-- Generator: Adobe Illustrator 21.1.0, SVG Export Plug-In . SVG Version: 6.00 Build 0)  -->
<svg version="1.1" id="Layer_1" xmlns="http://www.w3.org/2000/svg" xmlns:xlink="http://www.w3.org/1999/xlink" x="0px" y="0px"
	 viewBox="0 0 60 60" style="enable-background:new 0 0 60 60;" xml:space="preserve">
<style type="text/css">
	.st0{fill:#0575BB;}
</style>
<path class="st0" d="M30,13.4c-9.1,0-16.6,7.4-16.6,16.6c0,9.1,7.4,16.6,16.6,16.6S46.6,39.1,46.6,30C46.6,20.9,39.1,13.4,30,13.4z
	 M25,16c-2.4,2.8-4,7.5-4.2,13.1h-5.7C15.5,23.1,19.5,18,25,16z M15.2,30.9h5.7C21,36.4,22.6,41.2,25,44
	C19.5,42,15.5,36.9,15.2,30.9z M29.1,44.8c-3.5-0.8-6.3-6.8-6.6-13.9h6.6V44.8z M29.1,29.1h-6.6c0.2-7.1,3.1-13,6.6-13.9V29.1z
	 M44.8,29.1h-5.7C39,23.6,37.4,18.8,35,16C40.5,18,44.5,23.1,44.8,29.1z M30.9,15.2c3.5,0.8,6.3,6.8,6.6,13.9h-6.6V15.2z M30.9,44.8
	V30.9h6.6C37.2,38,34.4,43.9,30.9,44.8z M35,44c2.4-2.8,4-7.5,4.2-13.1h5.7C44.5,36.9,40.5,42,35,44z"/>
</svg>
