<?xml version="1.0" encoding="utf-8"?>
<!-- Generator: Adobe Illustrator 21.1.0, SVG Export Plug-In . SVG Version: 6.00 Build 0)  -->
<svg version="1.1" id="Layer_1" xmlns="http://www.w3.org/2000/svg" xmlns:xlink="http://www.w3.org/1999/xlink" x="0px" y="0px"
	 viewBox="0 0 60 60" style="enable-background:new 0 0 60 60;" xml:space="preserve">
<g>
	<path d="M30,15.5c-6.8,0-12.3,5.5-12.3,12.3c0,6.5,10.3,15.5,11.5,16.5c0.2,0.2,0.5,0.3,0.8,0.3c0.3,0,0.6-0.1,0.8-0.3
		c1.2-1,11.5-10,11.5-16.5C42.3,21,36.8,15.5,30,15.5z M30,41.7c-3.3-3-9.9-9.8-9.9-14c0-5.4,4.4-9.9,9.9-9.9c5.4,0,9.9,4.4,9.9,9.9
		C39.9,32,33.3,38.7,30,41.7z"/>
	<path d="M30,21.8c-3.3,0-6,2.7-6,6c0,3.3,2.7,6,6,6c3.3,0,6-2.7,6-6C36,24.5,33.3,21.8,30,21.8z M30,31.3c-2,0-3.6-1.6-3.6-3.6
		s1.6-3.6,3.6-3.6s3.6,1.6,3.6,3.6S32,31.3,30,31.3z"/>
</g>
</svg>
