<?xml version="1.0" encoding="utf-8"?>
<!-- Generator: Adobe Illustrator 21.1.0, SVG Export Plug-In . SVG Version: 6.00 Build 0)  -->
<svg version="1.1" id="Layer_1" xmlns="http://www.w3.org/2000/svg" xmlns:xlink="http://www.w3.org/1999/xlink" x="0px" y="0px"
	 viewBox="0 0 60 60" style="enable-background:new 0 0 60 60;" xml:space="preserve">
<style type="text/css">
	.st0{fill:#231F20;}
</style>
<g>
	<path class="st0" d="M34,19.2c-0.4-0.2-1,0-1.2,0.5L28.6,30l-4.3-10.3c-0.2-0.4-0.7-0.7-1.2-0.5c-0.4,0.2-0.7,0.7-0.5,1.2l5.1,12.3
		c0.1,0.3,0.5,0.6,0.8,0.6c0.4,0,0.7-0.2,0.8-0.6l5.1-12.3C34.7,19.9,34.5,19.4,34,19.2z"/>
	<path class="st0" d="M49,32.7c0.2,0.4,0.7,0.7,1.2,0.5c0.5-0.2,0.7-0.7,0.5-1.2l-5.1-12.3c-0.1-0.3-0.5-0.6-0.8-0.6
		c-0.4,0-0.7,0.2-0.8,0.6L38.9,32c-0.2,0.4,0,1,0.5,1.2c0.5,0.2,1,0,1.2-0.5l4.3-10.3L49,32.7z"/>
	<path class="st0" d="M40.3,24.8l0.9-2.3L40,19.7c-0.1-0.2-0.2-0.3-0.3-0.4c0,0,0,0,0,0c0,0,0,0,0,0c0,0-0.1,0-0.1-0.1
		c-0.1,0-0.2-0.1-0.3-0.1c0,0-0.1,0-0.1,0c0,0,0,0,0,0c-0.1,0-0.2,0-0.3,0.1c-0.2,0.1-0.3,0.2-0.4,0.3c0,0,0,0,0,0c0,0,0,0,0,0
		c0,0-0.1,0.1-0.1,0.1l-5.1,12.3c-0.2,0.5,0,1,0.5,1.2c0.4,0.2,1,0,1.2-0.5l4.3-10.3L40.3,24.8z"/>
	<path class="st0" d="M11.5,37.9c-0.1,0-0.2,0.1-0.2,0.2V40l-1.4-2c-0.1-0.1-0.2-0.1-0.3-0.1c-0.1,0-0.1,0.1-0.1,0.2c0,0,0,0,0,0
		v2.6c0,0.1,0.1,0.2,0.2,0.2c0.1,0,0.2-0.1,0.2-0.2v-1.9l1.4,2c0,0,0,0,0,0c0,0.1,0.1,0.1,0.2,0.1c0.1,0,0.2-0.1,0.2-0.2v-2.6
		C11.8,38,11.7,37.9,11.5,37.9z"/>
	<path class="st0" d="M16.5,38.4c0.1,0,0.2-0.1,0.2-0.2c0-0.1-0.1-0.2-0.2-0.2h-1.4c0,0,0,0,0,0h0c-0.1,0-0.2,0.1-0.2,0.2v2.6
		c0,0.1,0.1,0.2,0.2,0.2l0,0c0,0,0,0,0,0h1.4c0.1,0,0.2-0.1,0.2-0.2c0-0.1-0.1-0.3-0.2-0.3h-1.2v-0.8h1c0.1,0,0.2-0.1,0.2-0.2
		c0-0.1-0.1-0.2-0.2-0.2h-1v-0.8H16.5z"/>
	<path class="st0" d="M21.6,37.9h-1.9c-0.1,0-0.2,0.1-0.2,0.2c0,0.1,0.1,0.2,0.2,0.2h0.7v2.4c0,0.1,0.1,0.2,0.2,0.2
		c0.1,0,0.2-0.1,0.2-0.2v-2.4h0.7c0.1,0,0.2-0.1,0.2-0.2C21.8,38,21.7,37.9,21.6,37.9z"/>
	<path class="st0" d="M28.8,37.9c-0.1-0.1-0.3,0-0.3,0.1l-0.9,2.1L27,38.7c0-0.1-0.1-0.2-0.2-0.2c-0.1,0-0.2,0.1-0.2,0.2L26,40.1
		L25.1,38c0-0.1-0.2-0.2-0.3-0.1c-0.1,0-0.2,0.2-0.1,0.3l1.1,2.6c0,0,0,0,0,0v0c0,0,0,0,0,0c0,0,0,0,0,0c0,0,0,0,0,0c0,0,0,0,0,0
		c0,0,0,0,0,0c0,0,0,0,0,0c0,0,0,0,0,0c0,0,0,0,0,0c0,0,0,0,0,0c0,0,0,0,0,0c0,0,0,0,0,0c0,0,0,0,0,0c0,0,0,0,0,0s0,0,0,0
		c0,0,0,0,0,0c0,0,0,0,0,0c0,0,0,0,0,0c0,0,0,0,0,0c0,0,0,0,0,0c0,0,0,0,0,0c0,0,0,0,0,0l0.6-1.4l0.6,1.4c0,0,0,0,0,0c0,0,0,0,0,0
		c0,0,0,0,0,0c0,0,0,0,0,0c0,0,0,0,0,0c0,0,0,0,0,0c0,0,0,0,0,0c0,0,0,0,0,0c0,0,0,0,0,0c0,0,0,0,0,0c0,0,0,0,0,0c0,0,0,0,0,0
		c0,0,0,0,0,0c0,0,0,0,0,0c0,0,0,0,0,0h0c0,0,0,0,0,0h0c0,0,0,0,0,0c0,0,0,0,0,0c0,0,0,0,0,0l0,0c0,0,0,0,0,0l1.1-2.6
		C29,38.1,28.9,38,28.8,37.9z"/>
	<path class="st0" d="M33.2,37.8c-0.4,0-0.8,0.2-1.1,0.5c-0.3,0.3-0.4,0.7-0.4,1.1c0,0.4,0.2,0.8,0.4,1.1c0.3,0.3,0.7,0.5,1.1,0.5
		c0.4,0,0.8-0.2,1.1-0.5c0.3-0.3,0.5-0.7,0.5-1.1c0-0.4-0.2-0.8-0.5-1.1C34,38,33.6,37.8,33.2,37.8z M33.9,40.2
		c-0.2,0.2-0.4,0.3-0.7,0.3c-0.3,0-0.5-0.1-0.7-0.3c-0.2-0.2-0.3-0.5-0.3-0.8c0-0.3,0.1-0.6,0.3-0.8c0.2-0.2,0.4-0.3,0.7-0.3
		c0.3,0,0.5,0.1,0.7,0.3c0.2,0.2,0.3,0.5,0.3,0.8C34.2,39.7,34.1,40,33.9,40.2z"/>
	<path class="st0" d="M39.7,40.5c0,0,0-0.1,0-0.3c0-0.2-0.1-0.4-0.1-0.5c0-0.1-0.1-0.1-0.2-0.2c0.2-0.2,0.3-0.4,0.3-0.7
		c0-0.5-0.4-1-1-1H38c0,0,0,0,0,0c-0.1,0-0.2,0.1-0.2,0.2v2.6c0,0.1,0.1,0.2,0.2,0.2c0.1,0,0.3-0.1,0.3-0.2v-1h0.5
		c0,0,0.2,0,0.3,0.1c0.1,0,0.1,0.1,0.1,0.1c0,0,0,0.1,0.1,0.2c0,0.2,0,0.4,0.1,0.5c0,0.1,0.1,0.1,0.1,0.2c0.1,0,0.1,0,0.2,0
		c0,0,0,0,0,0c0,0,0.1,0,0.1,0c0.1,0,0.2-0.2,0.2-0.3C39.9,40.5,39.8,40.5,39.7,40.5z M38.8,39.3h-0.5v-0.9h0.5
		c0.3,0,0.5,0.2,0.5,0.5C39.3,39.1,39.1,39.3,38.8,39.3z"/>
	<path class="st0" d="M45.1,38c-0.1-0.1-0.3-0.1-0.3,0l-1.4,1.5v-1.3c0-0.1-0.1-0.2-0.2-0.2c-0.1,0-0.2,0.1-0.2,0.2v2.6
		c0,0.1,0.1,0.2,0.2,0.2c0.1,0,0.2-0.1,0.2-0.2v-0.6l0.5-0.5l1,1.3c0,0.1,0.1,0.1,0.2,0.1c0.1,0,0.1,0,0.2-0.1
		c0.1-0.1,0.1-0.2,0-0.3l-1-1.3l1-1C45.2,38.2,45.2,38.1,45.1,38z"/>
	<path class="st0" d="M50,39.3c-0.2-0.1-0.4-0.1-0.6-0.2h0c-0.2,0-0.4-0.1-0.6-0.2c-0.1,0-0.1-0.1-0.1-0.1c0,0,0-0.1,0-0.1
		c0-0.1,0-0.2,0.2-0.3c0.1-0.1,0.3-0.2,0.5-0.2c0.3,0,0.5,0.1,0.7,0.3c0.1,0.1,0.3,0,0.3-0.1c0.1-0.1,0-0.2-0.1-0.3
		c-0.2-0.1-0.5-0.4-1-0.4c-0.3,0-0.6,0.1-0.8,0.2c-0.2,0.2-0.4,0.4-0.4,0.7c0,0.1,0,0.3,0.1,0.4c0.1,0.2,0.2,0.3,0.4,0.3
		c0.2,0.1,0.4,0.1,0.6,0.2h0c0.3,0,0.5,0.1,0.6,0.2c0.1,0,0.1,0.1,0.1,0.1c0,0,0,0.1,0,0.1c0,0.1-0.1,0.2-0.2,0.3
		c-0.1,0.1-0.3,0.2-0.6,0.2c-0.3,0-0.7-0.2-0.9-0.3c-0.1-0.1-0.2-0.1-0.3,0c-0.1,0.1-0.1,0.2,0,0.3c0.3,0.2,0.7,0.4,1.1,0.4
		c0.3,0,0.6-0.1,0.8-0.3c0.2-0.2,0.4-0.4,0.4-0.7c0-0.1,0-0.3-0.1-0.4C50.3,39.5,50.2,39.4,50,39.3z"/>
	<path class="st0" d="M21.2,25.8C21.2,25.8,21.2,25.8,21.2,25.8l-1.8,0c-0.5,0-0.9,0.4-0.9,0.9c0,0.5,0.4,0.9,0.9,0.9l0.9,0v2.6
		c-0.4,0.4-1,0.8-1.5,1.1c-0.7,0.3-1.5,0.5-2.2,0.5c-1.5,0-2.9-0.6-3.9-1.6c-0.5-0.5-0.9-1.1-1.2-1.7C11.2,27.7,11,27,11,26.2
		c0-0.7,0.1-1.4,0.4-2.1c0.3-0.7,0.7-1.2,1.2-1.7c0.5-0.5,1.1-0.9,1.8-1.2c0.7-0.3,1.4-0.4,2.2-0.4c1.1,0,2.2,0.3,3.1,1
		c0.4,0.3,1,0.2,1.2-0.2c0.3-0.4,0.2-1-0.2-1.2c-1.2-0.9-2.6-1.3-4.1-1.3c-1,0-1.9,0.2-2.8,0.6c-0.9,0.4-1.7,0.9-2.3,1.6
		c-0.7,0.7-1.2,1.4-1.6,2.3c-0.4,0.9-0.6,1.8-0.6,2.8c0,1,0.2,1.9,0.6,2.8c0.4,0.9,0.9,1.6,1.6,2.3c0.7,0.7,1.5,1.2,2.3,1.6
		c0.9,0.4,1.8,0.6,2.8,0.6c1,0,2-0.2,3-0.6c0.9-0.4,1.7-1,2.4-1.7c0.1-0.2,0.2-0.4,0.2-0.6v-3.8c0,0,0,0,0,0c0-0.1,0-0.3-0.1-0.4
		C21.9,26,21.6,25.8,21.2,25.8z"/>
</g>
</svg>
