<?xml version="1.0" encoding="utf-8"?>
<!-- Generator: Adobe Illustrator 21.1.0, SVG Export Plug-In . SVG Version: 6.00 Build 0)  -->
<svg version="1.1" id="Layer_1" xmlns="http://www.w3.org/2000/svg" xmlns:xlink="http://www.w3.org/1999/xlink" x="0px" y="0px"
	 viewBox="0 0 60 60" style="enable-background:new 0 0 60 60;" xml:space="preserve">
<path d="M40.3,20.6H19.7c-1.5,0-2.7,1.2-2.7,2.7v13.5c0,1.5,1.2,2.7,2.7,2.7h20.6c1.5,0,2.7-1.2,2.7-2.7V23.2
	C43,21.8,41.8,20.6,40.3,20.6z M19.7,22.8h20.6c0.1,0,0.2,0,0.3,0.1L30,32.4L19.4,23C19.5,22.9,19.6,22.8,19.7,22.8z M19.3,24.4
	l6.3,5.6l-6.3,5.6V24.4z M40.3,37.2H19.7c-0.1,0-0.2,0-0.3-0.1l7-6.3l3.2,2.9c0.1,0.1,0.2,0.1,0.4,0.1c0.1,0,0.3,0,0.4-0.1l3.2-2.9
	l7,6.3C40.5,37.1,40.4,37.2,40.3,37.2z M40.7,35.6L34.4,30l6.3-5.6V35.6z"/>
</svg>
