<?xml version="1.0" encoding="utf-8"?>
<!-- Generator: Adobe Illustrator 21.1.0, SVG Export Plug-In . SVG Version: 6.00 Build 0)  -->
<svg version="1.1" id="Layer_1" xmlns="http://www.w3.org/2000/svg" xmlns:xlink="http://www.w3.org/1999/xlink" x="0px" y="0px"
	 viewBox="0 0 60 60" style="enable-background:new 0 0 60 60;" xml:space="preserve">
<g>
	<g>
		<path d="M30,45.5c-8.5,0-15.5-7-15.5-15.5s7-15.5,15.5-15.5c8.5,0,15.5,7,15.5,15.5S38.5,45.5,30,45.5z M30,15.5
			c-8,0-14.5,6.5-14.5,14.5S22,44.5,30,44.5c8,0,14.5-6.5,14.5-14.5S38,15.5,30,15.5z"/>
	</g>
	<g>
		<path d="M27.8,36.3c-0.1,0-0.3,0-0.4-0.1c-0.2-0.2-0.2-0.5,0-0.7L33,30l-5.5-5.5c-0.2-0.2-0.2-0.5,0-0.7s0.5-0.2,0.7,0l6.2,6.2
			l-6.2,6.2C28.1,36.3,28,36.3,27.8,36.3z"/>
	</g>
</g>
</svg>
