<?xml version="1.0" encoding="utf-8"?>
<!-- Generator: Adobe Illustrator 21.1.0, SVG Export Plug-In . SVG Version: 6.00 Build 0)  -->
<svg version="1.1" id="Layer_1" xmlns="http://www.w3.org/2000/svg" xmlns:xlink="http://www.w3.org/1999/xlink" x="0px" y="0px"
	 viewBox="0 0 60 60" style="enable-background:new 0 0 60 60;" xml:space="preserve">
<g>
	<g>
		<path d="M30,14.5c8.5,0,15.5,7,15.5,15.5s-7,15.5-15.5,15.5c-8.5,0-15.5-7-15.5-15.5S21.5,14.5,30,14.5z M30,44.5
			c8,0,14.5-6.5,14.5-14.5S38,15.5,30,15.5c-8,0-14.5,6.5-14.5,14.5S22,44.5,30,44.5z"/>
	</g>
	<g>
		<path d="M32.2,23.7c0.1,0,0.3,0,0.4,0.1c0.2,0.2,0.2,0.5,0,0.7L27,30l5.5,5.5c0.2,0.2,0.2,0.5,0,0.7s-0.5,0.2-0.7,0L25.6,30
			l6.2-6.2C31.9,23.7,32,23.7,32.2,23.7z"/>
	</g>
</g>
</svg>
