<?xml version="1.0" encoding="utf-8"?>
<!-- Generator: Adobe Illustrator 21.1.0, SVG Export Plug-In . SVG Version: 6.00 Build 0)  -->
<svg version="1.1" id="Layer_1" xmlns="http://www.w3.org/2000/svg" xmlns:xlink="http://www.w3.org/1999/xlink" x="0px" y="0px"
	 viewBox="0 0 60 60" style="enable-background:new 0 0 60 60;" xml:space="preserve">
<g>
	<path d="M46.6,28.8l-6.1-6.1c-0.5-0.5-1.4-0.5-1.9,0c-0.5,0.5-0.5,1.4,0,1.9l5.2,5.2l-5.2,5.2c-0.5,0.5-0.5,1.4,0,1.9
		c0.3,0.3,0.6,0.4,0.9,0.4c0.3,0,0.7-0.1,0.9-0.4l6.1-6.1C47.1,30.1,47.1,29.3,46.6,28.8z"/>
	<path d="M23.6,22.7c-0.5-0.5-1.4-0.5-1.9,0l-6.1,6.1c-0.5,0.5-0.5,1.4,0,1.9l6.1,6.1c0.3,0.3,0.6,0.4,0.9,0.4
		c0.3,0,0.7-0.1,0.9-0.4c0.5-0.5,0.5-1.4,0-1.9l-5.2-5.2l5.2-5.2C24.1,24,24.1,23.2,23.6,22.7z"/>
	<path d="M36.5,15.1c-0.7-0.3-1.5,0.1-1.7,0.8l-10,26.8c-0.3,0.7,0.1,1.5,0.8,1.7c0.2,0.1,0.3,0.1,0.5,0.1c0.5,0,1-0.3,1.2-0.9
		l10-26.8C37.6,16.1,37.2,15.3,36.5,15.1z"/>
</g>
</svg>
